<svg xmlns="http://www.w3.org/2000/svg" width="48" height="48" viewBox="0 0 48 48" fill="none">
  <title>Cashup</title>
  <path d="M8 12.5A3.5 3.5 0 0 1 11.5 9h22A2.5 2.5 0 0 1 36 11.5v4H11.5A3.5 3.5 0 0 1 8 12Z" fill="#2E9E4B"/>
  <path d="M6.5 15.5A3.5 3.5 0 0 1 10 12h27a3 3 0 0 1 3 3v19a3 3 0 0 1-3 3H10a3.5 3.5 0 0 1-3.5-3.5Z" fill="#15803D"/>
  <path d="M24 18h16v9H24a4.5 4.5 0 0 1 0-9Z" fill="#2E9E4B"/>
  <circle cx="28.6" cy="22.5" r="2.3" fill="#FFFFFF"/>
  <circle cx="35.5" cy="34.5" r="9.5" fill="#F5A623"/><g transform="translate(35.5 34.5) scale(0.920)" stroke="#FFFFFF" stroke-width="1.9" fill="none" stroke-linecap="round" stroke-linejoin="round"><path d="M2.45-2.15C2.45-3.4 1.3-4.05 0-4.05C-1.45-4.05-2.5-3.3-2.5-2.05C-2.5-0.85-1.5-0.3 0 .18C1.5 .66 2.5 1.15 2.5 2.35C2.5 3.65 1.4 4.35 0 4.35C-1.35 4.35-2.45 3.7-2.45 2.45"/><path d="M0-5.75V5.75"/></g>
</svg>
