<svg xmlns="http://www.w3.org/2000/svg" width="48" height="48" viewBox="0 0 48 48" fill="none">
  <title>Yoco</title>
  <rect x="13.5" y="7" width="21" height="34" rx="4" fill="#12A79D"/>
  <path d="M30.5 7h.5a4 4 0 0 1 3.5 4v26a4 4 0 0 1-4 4h-.5Z" fill="#0E8C86"/>
  <rect x="16.2" y="10.2" width="15.6" height="10.4" rx="2" fill="#FFFFFF"/>
  <circle cx="24" cy="15.4" r="4" fill="#12A79D"/>
  <path d="M22.1 15.5l1.4 1.4 2.6-2.9" stroke="#FFFFFF" stroke-width="1.5" stroke-linecap="round" stroke-linejoin="round" fill="none"/>
  <circle cx="18.9" cy="25" r="1.95" fill="#FFFFFF"/><circle cx="24" cy="25" r="1.95" fill="#FFFFFF"/><circle cx="29.1" cy="25" r="1.95" fill="#FFFFFF"/>
  <circle cx="18.9" cy="29.3" r="1.95" fill="#FFFFFF"/><circle cx="24" cy="29.3" r="1.95" fill="#FFFFFF"/><circle cx="29.1" cy="29.3" r="1.95" fill="#FFFFFF"/>
  <circle cx="18.9" cy="33.6" r="1.95" fill="#FFFFFF"/><circle cx="24" cy="33.6" r="1.95" fill="#FFFFFF"/><circle cx="29.1" cy="33.6" r="1.95" fill="#FBBF24"/>
  <circle cx="18.9" cy="37.9" r="1.95" fill="#FFFFFF"/><circle cx="24" cy="37.9" r="1.95" fill="#FFFFFF"/><circle cx="29.1" cy="37.9" r="1.95" fill="#FBBF24"/>
</svg>
